<?xml version="1.0" encoding="UTF-8" standalone="no"?>
<!-- Created with Inkscape (http://www.inkscape.org/) -->

<svg
   xmlns:dc="http://purl.org/dc/elements/1.1/"
   xmlns:cc="http://creativecommons.org/ns#"
   xmlns:rdf="http://www.w3.org/1999/02/22-rdf-syntax-ns#"
   xmlns:svg="http://www.w3.org/2000/svg"
   xmlns="http://www.w3.org/2000/svg"
   xmlns:sodipodi="http://sodipodi.sourceforge.net/DTD/sodipodi-0.dtd"
   xmlns:inkscape="http://www.inkscape.org/namespaces/inkscape"
   width="140.80432mm"
   height="142.843mm"
   viewBox="0 0 140.80432 142.843"
   version="1.1"
   id="svg43"
   inkscape:version="0.92.1 r15371"
   sodipodi:docname="Lyric.svg">
  <defs
     id="defs37" />
  <sodipodi:namedview
     id="base"
     pagecolor="#ffffff"
     bordercolor="#666666"
     borderopacity="1.0"
     inkscape:pageopacity="0.0"
     inkscape:pageshadow="2"
     inkscape:zoom="0.35"
     inkscape:cx="-108.72904"
     inkscape:cy="-365.81963"
     inkscape:document-units="mm"
     inkscape:current-layer="svg43"
     showgrid="false"
     inkscape:window-width="1920"
     inkscape:window-height="1027"
     inkscape:window-x="-8"
     inkscape:window-y="-8"
     inkscape:window-maximized="1"
     showborder="false"
     inkscape:showpageshadow="false"
     borderlayer="false"
     fit-margin-top="0"
     fit-margin-left="0"
     fit-margin-right="0"
     fit-margin-bottom="0" />
  <metadata
     id="metadata40">
    <rdf:RDF>
      <cc:Work
         rdf:about="">
        <dc:format>image/svg+xml</dc:format>
        <dc:type
           rdf:resource="http://purl.org/dc/dcmitype/StillImage" />
        <dc:title></dc:title>
      </cc:Work>
    </rdf:RDF>
  </metadata>
  <g
     inkscape:label="Layer 1"
     inkscape:groupmode="layer"
     id="layer1"
     transform="translate(0.01873331,0.00471098)">
    <g
       transform="matrix(0.26458333,0,0,0.26458367,-0.52628309,-0.00471098)"
       id="g20">
      <path
         style="fill:#878787"
         d="m 263.51755,538.0553 c -0.98746,-3.1112 0.33014,-5.97897 3.06209,-6.66464 3.40383,-0.85431 5.58981,1.24908 5.22143,5.02417 -0.26977,2.76444 -0.68208,3.11691 -3.96613,3.39047 -2.96939,0.24735 -3.78888,-0.0848 -4.31739,-1.75 z m 92.70496,-14.612 c -2.80904,-1.96753 -2.90899,-6.00554 -0.18474,-7.46352 2.58265,-1.38218 5.64945,-0.43273 7.04897,2.18229 0.88216,1.64833 0.66276,2.47567 -1.17538,4.43228 -2.66973,2.8418 -2.8131,2.8632 -5.68885,0.84895 z m -183.17683,-0.88826 c -1.55377,-1.87218 -0.98651,-5.57461 1.04954,-6.85017 2.26366,-1.41814 6.57202,-0.0854 7.17475,2.2195 1.17536,4.49457 -5.30776,8.14488 -8.22429,4.63067 z m 91.12213,-8.15006 c -3.42,-2.39546 -2.72067,-8.38849 1.19695,-10.25745 2.55673,-1.21972 3.14811,-1.15609 5.5,0.5918 3.70201,2.75127 3.92923,6.49096 0.55561,9.14465 -3.22397,2.53597 -4.26865,2.61102 -7.25256,0.521 z m -81.9453,-14.96168 c -1.37135,-0.96053 -2.21665,-2.58817 -2.2072,-4.25 0.0186,-3.27571 0.79243,-4.52927 3.76108,-6.0929 1.91882,-1.01068 2.74346,-0.86642 5.25,0.91839 3.61005,2.57058 3.85229,5.8071 0.65916,8.8069 -2.74412,2.57796 -4.46135,2.72007 -7.46304,0.61761 z m 164,0 C 341.8764,496.39917 344.58693,489 350.04819,489 352.03246,489 356,493.09308 356,495.14014 356,497.02838 351.87108,501 349.90806,501 c -0.80468,0 -2.46318,-0.70052 -3.68555,-1.5567 z m -83.77026,-14.08932 c -3.15583,-3.4052 -3.14632,-7.3533 0.0249,-10.3325 4.60563,-4.32676 11.50729,-2.17064 13.02849,4.07019 0.47362,1.94307 -0.0334,3.38207 -2.02584,5.75 -3.41697,4.06083 -7.56047,4.25332 -11.02753,0.51231 z M 93.654988,476.17126 c -2.176601,-2.40512 -2.091312,-4.46642 0.273348,-6.60641 2.435216,-2.20384 5.790897,-1.27517 7.291284,2.01782 0.89223,1.95823 0.75821,2.78434 -0.71594,4.41327 -2.257183,2.49415 -4.693729,2.55653 -6.848692,0.17532 z M 435.2,476.8 c -1.57641,-1.57641 -1.52095,-3.97881 0.14441,-6.25633 1.7009,-2.32612 6.10584,-1.4394 7.70643,1.55132 2.12598,3.97243 -4.57033,7.98552 -7.85084,4.70501 z M 190.45455,472.54545 C 189.10455,471.19545 188,468.925 188,467.5 c 0,-1.425 1.10455,-3.69545 2.45455,-5.04545 5.90692,-5.90693 15.14614,-0.34474 12.41953,7.47681 -1.92377,5.51854 -8.19509,6.83854 -12.41953,2.61409 z m 143.61803,-0.18031 c -2.74937,-3.49526 -2.61773,-6.9109 0.38197,-9.91059 3.49588,-3.49589 7.69193,-3.25761 10.95656,0.62218 3.00909,3.5761 3.08026,4.07239 1.12588,7.85175 -2.56455,4.95928 -9.10091,5.71266 -12.46441,1.43666 z M 418.25,458.47297 c -1.58555,-1.1179 -2.25,-2.59641 -2.25,-5.00662 0,-6.92101 8.26722,-8.3635 11.18841,-1.95219 0.97479,2.13943 0.83733,2.97602 -0.86506,5.26473 -2.43901,3.27905 -5.04868,3.82666 -8.07335,1.69408 z M 110.22251,457.4433 C 105.81253,454.35443 108.60199,447 114.18355,447 116.57969,447 120,450.89981 120,453.63186 120,455.9997 116.64655,459 114,459 c -0.85524,0 -2.55512,-0.70052 -3.77749,-1.5567 z m 152.52747,-1.52341 C 260.427,454.56688 258,449.73986 258,446.47274 258,442.53335 262.99807,438 267.34129,438 c 4.87637,0 6.50988,0.81151 8.1957,4.07152 3.78695,7.32316 -0.0236,14.96059 -7.43301,14.89807 -1.98219,-0.0167 -4.39149,-0.48909 -5.354,-1.0497 z m 62.5126,-10.04577 c -2.01678,-0.5761 -3.80772,-2.02763 -4.75,-3.84979 -5.35534,-10.35609 6.78165,-20.27338 14.58621,-11.91857 3.8603,4.13246 3.91519,8.77955 0.15121,12.80025 -3.28208,3.50593 -5.64567,4.20835 -9.98742,2.96811 z M 201.25084,444.2241 c -3.36423,-2.58983 -4.55024,-7.79091 -2.67681,-11.73886 2.44724,-5.15719 7.94484,-6.81964 13.33478,-4.0324 8.24119,4.26169 4.73705,17.57966 -4.61106,17.52492 -2.08876,-0.0122 -4.80987,-0.80138 -6.04691,-1.75366 z M 399.5,437.79218 c -3.32768,-1.90842 -4.55427,-4.12428 -4.00027,-7.22656 C 396.28586,426.16352 398.75736,424 403,424 c 7.9082,0 10.46942,10.64257 3.34268,13.88973 -3.0249,1.37823 -4.30111,1.36004 -6.84268,-0.0976 z m -272.32569,-2.10663 c -2.88427,-3.07017 -2.77173,-7.17904 0.28024,-10.231 2.99969,-2.9997 6.41533,-3.13134 9.91059,-0.38197 3.30154,2.59699 3.61252,7.94976 0.63486,10.92742 -2.78541,2.78541 -8.05738,2.63227 -10.82569,-0.31445 z M 259.36808,418.4288 C 256.58031,415.4729 256,414.08846 256,410.39361 c 0,-5.13319 2.08049,-8.86675 6.09884,-10.94472 10.72754,-5.54743 21.95308,5.81488 16.38423,16.58384 -1.93546,3.74278 -6.24681,5.96727 -11.56533,5.96727 -3.49942,0 -4.73104,-0.58259 -7.54966,-3.5712 z m 118.05223,-4.31427 c -1.69383,-1.03289 -3.67429,-3.31348 -4.40102,-5.06796 -1.79672,-4.33767 0.56254,-9.40265 5.46976,-11.74274 3.28325,-1.56567 3.73865,-1.56567 7.0219,0 4.90722,2.34009 7.26648,7.40507 5.46976,11.74274 -1.32472,3.19816 -6.1704,6.94595 -8.98071,6.94595 -0.825,0 -2.88586,-0.84509 -4.57969,-1.87799 z m -230.49723,-2.03761 c -5.63271,-5.6327 -2.68138,-14.46668 5.25515,-15.72988 7.05868,-1.12347 13.42869,6.35929 10.80527,12.69279 -2.75063,6.64061 -10.91331,8.18421 -16.06042,3.03709 z m 66.64435,-0.0233 c -6.08274,-4.00977 -7.44475,-11.90359 -3.04838,-17.66753 7.21807,-9.46337 21.48095,-4.0308 21.48095,8.18186 0,2.92667 -0.78407,4.45137 -3.88235,7.54966 -3.17595,3.17594 -4.58609,3.88115 -7.75,3.87576 -2.13501,-0.004 -5.18139,-0.87261 -6.80022,-1.93975 z m 96.32584,0.44943 C 306.04063,410.40907 304,406.63593 304,401.60639 c 0,-3.69485 0.58031,-5.07929 3.36808,-8.03519 C 310.1867,390.58259 311.41832,390 314.91774,390 322.95211,390 328,394.84945 328,402.56799 c 0,2.92667 -0.78407,4.45137 -3.88235,7.54966 -3.19878,3.19877 -4.56334,3.8753 -7.75,3.84231 -2.12721,-0.022 -5.04068,-0.67761 -6.47438,-1.45687 z m 184.67238,-6.43055 c -1.53037,-1.69103 -1.57889,-2.27366 -0.39562,-4.75 1.81062,-3.78924 5.21129,-4.1964 7.38178,-0.88381 1.55742,2.37693 1.56031,2.7412 0.0401,5.06127 -1.95929,2.99025 -4.64058,3.20874 -7.02631,0.57254 z M 34.654988,405.17126 C 31.695347,401.90089 33.242925,398 37.5,398 c 2.680459,0 4.5,1.81954 4.5,4.5 0,4.34869 -4.384043,5.94309 -7.345012,2.67126 z M 471.17431,393.68555 C 469.97844,392.4126 469,390.6126 469,389.68555 469,387.2121 472.63188,384 475.42857,384 c 5.20351,0 7.40559,6.16584 3.57143,10 -2.62975,2.62975 -5.15508,2.52828 -7.82569,-0.31445 z M 56.115634,392.41988 c -2.646728,-3.36477 -2.636464,-3.70285 0.212988,-7.01554 1.858287,-2.16038 2.865633,-2.5724 4.98735,-2.03988 1.462301,0.36701 3.375466,1.76117 4.251479,3.09814 1.368101,2.08799 1.404166,2.82623 0.255695,5.23412 -1.923631,4.0331 -6.817166,4.39764 -9.707512,0.72316 z M 354.29805,389.3301 c -1.21107,-0.25113 -3.57357,-2.0188 -5.25,-3.92815 -4.36716,-4.97393 -4.27768,-10.64625 0.25058,-15.88469 2.87882,-3.3303 3.87761,-3.82876 7.84787,-3.91661 8.07385,-0.17863 12.8535,4.40201 12.8535,12.31833 0,7.44685 -7.72971,13.06429 -15.70195,11.41112 z M 172.38812,388.01993 C 168.5452,386.46722 166,382.1115 166,377.08765 c 0,-5.26042 1.78648,-8.40875 6.01104,-10.59336 6.28446,-3.24982 13.1544,-0.94262 16.50894,5.54435 5.20842,10.07197 -5.21077,20.39391 -16.13186,15.98129 z m 273.47747,-6.53134 c -3.58973,-1.95038 -4.42475,-5.84323 -2.10768,-9.82601 2.59187,-4.45514 8.13206,-4.96337 11.73432,-1.07646 3.84322,4.1469 3.00261,8.49213 -2.17649,11.25054 -2.79035,1.48615 -4.19501,1.42052 -7.45015,-0.34807 z M 80.174314,379.68555 c -3.590936,-3.82238 -2.745811,-8.82154 1.897207,-11.22254 3.942409,-2.03869 5.642649,-1.83975 8.473934,0.99154 C 93.575721,372.48481 93.779831,377.22017 91,380 c -2.785405,2.78541 -8.057384,2.63227 -10.825686,-0.31445 z M 417.59469,367.46583 c -4.03282,-2.09376 -5.52948,-4.38058 -5.54065,-8.46583 -0.0316,-11.54629 15.90281,-13.16348 19.45408,-1.97441 0.79897,2.51733 -2.98814,9.69085 -5.49135,10.4017 -1.10922,0.31499 -2.80427,0.79191 -3.76677,1.05981 -0.9625,0.26791 -3.05739,-0.19166 -4.65531,-1.02127 z m -308.24083,-0.63998 c -1.18037,-0.57133 -2.92905,-2.77498 -3.88595,-4.897 -1.46487,-3.24852 -1.54432,-4.33017 -0.50273,-6.84479 2.78145,-6.71502 11.19254,-8.26773 16.13361,-2.9783 7.60589,8.14213 -1.5715,19.64431 -11.74493,14.72009 z M 139.61488,349.9117 C 136.51704,347.47494 134,343.00966 134,339.95079 c 0,-1.18169 0.73568,-3.69886 1.63484,-5.59371 4.8938,-10.3129 21.67159,-7.59565 22.4934,3.64292 0.37817,5.17159 -0.21953,6.95439 -3.49632,10.4288 -2.89182,3.06622 -4.00397,3.5712 -7.86514,3.5712 -3.04625,0 -5.35355,-0.67371 -7.1519,-2.0883 z m 242.20098,0.0212 c -5.28596,-3.94605 -6.12391,-13.48338 -1.55055,-17.648 4.9906,-4.54457 9.64709,-5.41579 14.77454,-2.76428 2.74288,1.41839 6.96015,7.85555 6.96015,10.62383 0,2.77123 -4.20389,9.62743 -6.56181,10.70177 -3.95984,1.80422 -10.57625,1.36062 -13.62233,-0.91332 z M 215.25,319.96884 c -2.22789,-0.89551 -2.90328,-3.43405 -1.48469,-5.58047 0.43301,-0.65517 3.54011,-1.0658 7.56682,-1 6.30623,0.10304 7.01768,-0.1037 9.24286,-2.68583 4.64862,-5.39435 4.52586,-5.90301 -7.96177,-32.99077 -6.39253,-13.86647 -11.62063,-25.99927 -11.618,-26.96177 0.008,-2.78295 6.54922,-2.39315 8.39111,0.5 0.78785,1.2375 5.35815,11.16757 10.15623,22.06683 5.316,12.07577 9.08349,19.45712 9.64463,18.89598 0.50647,-0.50647 4.30054,-9.6203 8.43125,-20.25294 4.13072,-10.63265 7.94724,-20.14834 8.48116,-21.14598 1.02306,-1.91161 7.2885,-2.61298 8.3273,-0.93218 0.80663,1.30516 -24.00678,60.8787 -26.98144,64.77868 -1.40187,1.83794 -3.85324,4.01624 -5.44749,4.84066 -3.18143,1.64518 -13.12763,1.92299 -16.74797,0.46779 z m 311.40499,-0.79758 C 523.69535,315.90089 525.24293,312 529.5,312 c 1.155,0 2.64,0.54 3.3,1.2 0.66,0.66 1.2,2.145 1.2,3.3 0,4.34869 -4.38404,5.94309 -7.34501,2.67126 z M 3.0876403,318.6056 c -2.84136433,-3.42363 0.9993745,-9.30205 4.595529,-7.03365 2.8787457,1.81586 3.9349777,4.22302 2.7108537,6.17805 -1.420561,2.26876 -5.7160977,2.77178 -7.3063827,0.8556 z M 499.65499,316.17126 C 496.0328,312.16879 498.83301,306 504.27204,306 507.07258,306 510,309.18017 510,312.22251 510,314.74447 506.42468,318 503.65499,318 c -1.28976,0 -3.08976,-0.82293 -4,-1.82874 z M 28.174314,314.68555 c -2.779517,-2.95866 -2.745151,-4.80065 0.140137,-7.51124 2.74412,-2.57796 4.46135,-2.72007 7.463043,-0.61761 4.246804,2.97458 1.792402,10.4433 -3.431921,10.4433 -1.09832,0 -2.975386,-1.0415 -4.171259,-2.31445 z m 29.189768,-1.85514 C 55.214637,311.78963 53,308.08473 53,305.52967 53,303.11347 58.062106,298 60.454035,298 c 1.251936,0 3.461934,0.93266 4.911106,2.07258 C 67.397502,301.67124 68,303.02662 68,306 c 0,2.97338 -0.602498,4.32876 -2.634859,5.92742 -2.884384,2.26886 -4.746268,2.47899 -8.001059,0.90299 z M 470.22251,312.4433 c -3.12305,-2.18747 -3.07322,-8.29547 0.0919,-11.26899 3.85361,-3.62028 8.84543,-2.51561 11.54641,2.55517 3.55467,6.67349 -5.19666,13.22575 -11.63835,8.71382 z m -32.11244,-2.83881 c -10.1273,-5.61313 -3.86831,-20.58543 7.31469,-17.49765 4.27533,1.18047 6.57524,4.21709 6.57524,8.68141 0,4.39242 -1.40935,6.85496 -4.97998,8.7014 -3.54312,1.83221 -5.75989,1.86079 -8.90995,0.11484 z M 86.636364,307.36364 C 84.630334,305.35761 84,303.72966 84,300.55477 c 0,-5.00994 1.348284,-7.01522 6.006958,-8.93405 4.744011,-1.95398 9.323294,-0.0931 11.619372,4.72189 4.59427,9.63427 -7.491179,18.51981 -14.989966,11.02103 z m 314.633326,-1.84623 c -9.27971,-4.03414 -9.54827,-17.78468 -0.43184,-22.11071 7.72331,-3.66495 17.16215,2.20568 17.16215,10.67424 0,5.04781 -3.01202,9.60831 -7.61654,11.5322 -4.06011,1.69642 -5.01436,1.6864 -9.11377,-0.0957 z m -277.37642,-1.01432 c -5.64023,-3.06563 -7.78246,-11.69019 -4.24477,-17.08939 4.80556,-7.3342 16.92213,-7.01227 20.83457,0.55357 5.65756,10.94051 -5.8257,22.38642 -16.5898,16.53582 z m 219.56863,-1.86868 c -10.64193,-4.95554 -17.27871,-16.68985 -16.19557,-28.63492 0.88782,-9.791 6.09297,-17.66654 14.90095,-22.54554 4.74119,-2.62628 6.27558,-2.95262 13.83272,-2.94195 9.2872,0.0131 14.16772,1.79482 18.94997,6.91799 l 2.44996,2.62462 -2.44996,2.41636 -2.44997,2.41635 -5.85508,-3.65794 c -4.78427,-2.98896 -6.80453,-3.65795 -11.0465,-3.65795 -15.35265,0 -24.41139,16.9871 -16.81407,31.53003 2.26615,4.33791 3.80155,5.86526 8.25,8.2067 6.91836,3.64149 12.94583,3.24638 20.30985,-1.33135 5.2981,-3.29347 7.31826,-3.46641 9.01515,-0.77175 0.84776,1.34623 0.55464,2.26849 -1.39281,4.38234 -6.79442,7.37497 -21.46007,9.72439 -31.50464,5.04701 z m -178.99963,0.12788 c -0.26862,-0.70002 -0.37002,-17.24541 -0.22533,-36.76753 L 164.5,230.5 h 4 4 l 0.5,32.5 0.5,32.5 20.5,0.5 20.5,0.5 v 3.5 3.5 l -24.77466,0.26752 c -19.33044,0.20874 -24.88199,-0.0122 -25.26307,-1.00523 z m 108.98899,-0.0287 c -0.26728,-0.69653 -0.36566,-12.95903 -0.21862,-27.25 L 273.5,249.5 l 2.81047,-0.32226 C 280.4092,248.70777 282,250.55027 282,255.7675 v 4.52261 l 5.35934,-5.06863 c 3.47433,-3.28588 6.85256,-5.47072 9.60481,-6.21183 5.87052,-1.58076 7.22601,-0.84736 6.84669,3.70453 -0.2959,3.55091 -0.55122,3.79676 -5.31084,5.11375 -6.88162,1.90415 -11.28444,5.51283 -14.09784,11.55504 -2.12831,4.57086 -2.38366,6.52254 -2.39239,18.28524 -0.005,7.24252 -0.28291,13.88002 -0.61676,14.75 -0.73988,1.92811 -7.22408,2.1856 -7.94175,0.31537 z m 38.02335,0.0608 c -0.28013,-0.72999 -0.38901,-13.01987 -0.24197,-27.31084 L 311.5,249.5 l 3.7163,-0.30836 c 3.17708,-0.26361 3.7983,0.0266 4.28142,2 0.31081,1.2696 0.43848,13.55836 0.2837,27.30836 l -0.28142,25 -3.75804,0.31084 c -2.43839,0.2017 -3.93688,-0.15522 -4.26735,-1.01642 z M 125.41519,256.57859 C 120.93141,254.62635 118,250.4231 118,245.94618 c 0,-9.83576 9.48678,-15.84854 18.03273,-11.42925 8.2189,4.25015 7.81973,17.95254 -0.63992,21.96691 -3.86897,1.83595 -5.93352,1.85555 -9.97762,0.0948 z m 274.15224,-0.52493 c -3.69338,-2.43469 -5.48663,-5.62874 -5.53199,-9.85332 C 393.95683,238.88093 398.98217,234 406.59674,234 c 4.05615,0 5.10801,0.4675 8.03518,3.5712 2.78777,2.9559 3.36808,4.34034 3.36808,8.03519 0,2.46257 -0.7391,5.59198 -1.6485,6.97991 -3.50828,5.35431 -11.43688,6.99225 -16.78407,3.46736 z m 38.32062,-8.5533 c -5.29449,-2.8775 -6.10984,-10.46125 -1.63961,-15.25036 2.99855,-3.21244 9.52978,-3.11165 13.10554,0.20225 2.08534,1.93264 2.63928,3.36292 2.61422,6.75 -0.0342,4.62474 -1.20554,6.79857 -4.65246,8.63441 -2.87529,1.53139 -6.21009,1.41243 -9.42769,-0.3363 z M 86.646023,245.54775 C 82.856701,242.03592 82.965228,236.31924 86.90121,232.10576 88.68071,230.20079 90.789011,229 92.354157,229 c 9.809343,0 14.326413,11.88777 6.7325,17.7182 -2.840608,2.18095 -9.500509,1.55436 -12.440634,-1.17045 z M 471.25,240.01096 c -2.79793,-1.70593 -3.25,-2.54 -3.25,-5.99626 0,-4.81138 2.70884,-8.0147 6.77749,-8.0147 3.79963,0 6.93557,2.4171 7.7099,5.94259 0.81128,3.69372 -0.70985,6.60397 -4.46737,8.54706 -3.56364,1.84283 -2.88359,1.89091 -6.77002,-0.47869 z M 59,240.28056 c -5.1915,-1.87426 -6.911604,-9.24061 -2.987095,-12.79224 4.619134,-4.18026 12.320428,-0.735 12.320428,5.51168 0,4.68082 -5.231254,8.76152 -9.333333,7.28056 z m 252.41739,-4.63524 c -0.3116,-0.81201 -0.42048,-2.75189 -0.24196,-4.31085 C 311.47156,228.74835 311.85047,228.5 315.5,228.5 h 4 v 4 c 0,3.90193 -0.0921,4.00762 -3.75804,4.31084 -2.60788,0.21571 -3.93142,-0.141 -4.32457,-1.16552 z M 29.399704,233.23469 C 25.71949,230.77734 25.78631,224.06345 29.505183,222.63638 34.150789,220.8537 38,223.24622 38,227.91644 c 0,4.48996 -5.109148,7.64935 -8.600296,5.31825 z M 499.2,232.8 c -3.12503,-3.12503 0.2345,-10.8 4.72742,-10.8 2.21018,0 6.07258,4.43948 6.07258,6.97987 0,4.03004 -7.82298,6.79715 -10.8,3.82013 z m 28.02251,-5.3567 c -2.75978,-1.93303 -2.84276,-4.57201 -0.21845,-6.94698 1.65591,-1.49857 2.43767,-1.61608 4.5,-0.67642 3.16342,1.44135 3.51664,6.56347 0.56168,8.14492 -2.43148,1.30129 -2.20617,1.32555 -4.84323,-0.52152 z M 3.2,226.8 C 0.39500261,223.995 2.508273,219 6.5,219 c 2.6804589,0 4.5,1.81954 4.5,4.5 0,2.68046 -1.8195411,4.5 -4.5,4.5 -1.155,0 -2.64,-0.54 -3.3,-1.2 z m 137.69149,-16.7955 c -5.84192,-3.08746 -7.61279,-9.57488 -4.43922,-16.26268 3.94298,-8.30921 15.64374,-8.55234 20.5975,-0.428 3.61067,5.92161 2.05844,12.34884 -3.96222,16.40616 -4.07902,2.74885 -7.38718,2.82603 -12.19606,0.28452 z M 383.5,210.15832 c -4.55721,-2.78628 -5.67314,-4.65732 -5.74844,-9.63819 C 377.63082,192.53302 382.03613,188 389.91898,188 c 3.28589,0 4.85965,0.68665 7.84571,3.42316 3.38775,3.10464 3.73531,3.9027 3.73531,8.57684 0,4.67414 -0.34756,5.4722 -3.73531,8.57684 -4.36575,4.00091 -9.39545,4.55854 -14.26469,1.58148 z M 110.47576,189.60406 c -7.25891,-3.1627 -6.98905,-14.49195 0.41827,-17.56017 2.31967,-0.96083 3.78399,-0.97523 6.54406,-0.0643 8.91494,2.94219 8.85054,14.679 -0.0992,18.08169 -3.05874,1.16293 -3.16014,1.15618 -6.86311,-0.4572 z m 304.42545,-1.70982 c -7.37975,-7.90004 1.20696,-19.24359 11.5596,-15.27091 1.80826,0.6939 5.53919,7.38687 5.53919,9.93683 0,0.90191 -1.53,3.16984 -3.4,5.03984 -4.62645,4.62645 -9.55305,4.73227 -13.69879,0.29424 z M 173.39626,173.60415 c -7.66268,-3.4184 -9.7926,-12.80528 -4.31987,-19.03837 7.75609,-8.8337 20.90946,-3.67864 20.91987,8.19891 0.007,8.25522 -9.08474,14.1921 -16.6,10.83946 z m 178.21862,-0.69245 c -5.96553,-4.69248 -7.24027,-13.4882 -2.66121,-18.36238 7.61429,-8.10504 21.04633,-2.92229 21.04633,8.12072 0,2.42018 -0.74182,5.53249 -1.6485,6.91626 -3.55619,5.42743 -11.94529,7.09427 -16.73662,3.3254 z m 95.68748,-0.92264 c -1.2087,-0.48723 -2.90776,-2.25909 -3.77568,-3.93747 -1.42356,-2.75285 -1.42767,-3.34238 -0.042,-6.02195 C 445.0691,158.9657 447.75517,157 450.35753,157 453.15032,157 458,162.01331 458,164.90033 458,167.51564 454.8689,172 453.04283,172 c -0.48359,0 -1.47856,0.19686 -2.21104,0.43747 -0.73249,0.24061 -2.32073,0.0388 -3.52943,-0.44841 z M 81.913343,170.7182 C 79.997998,169.24764 78,165.6655 78,163.70211 78,160.97941 83.084787,157 86.563783,157 90.295042,157 94,160.73117 94,164.48884 c 0,5.38639 -7.888923,9.45227 -12.086657,6.22936 z M 471.51665,154.60756 c -2.77621,-2.77621 -3.01002,-3.81717 -1.49373,-6.65038 2.23134,-4.16931 7.60423,-4.46262 10.21177,-0.55748 1.17502,1.75977 0.87814,6.26514 -0.48469,7.35547 -3.04889,2.43924 -5.69392,2.39182 -8.23335,-0.14761 z M 57,154 c -2.402613,-2.40261 -2.538472,-4.78621 -0.443296,-7.77749 C 59.658352,141.79428 67,144.60629 67,150.22251 67,152.6094 63.478823,156 61,156 c -1.1,0 -2.9,-0.9 -4,-2 z m 157.48713,-5.11469 c -1.10708,-0.53862 -3.07863,-2.53469 -4.38122,-4.43569 C 204.83842,136.76222 210.87359,126 220.45198,126 c 3.79627,0 5.02151,0.54016 8.01469,3.53333 3.1549,3.15491 3.52992,4.09205 3.50153,8.75 -0.0334,5.48482 -0.89003,7.22074 -4.94071,10.01256 -2.69094,1.85467 -9.30123,2.16536 -12.54036,0.58942 z m 94.35707,-1.14028 c -5.04366,-4.26357 -6.30897,-10.45679 -3.20866,-15.7052 C 312.07101,121.14545 328,126.01089 328,138.87096 c 0,3.31668 -0.64858,4.71096 -3.53333,7.59571 -3.04808,3.04807 -4.18111,3.53265 -8.25,3.52836 -3.42792,-0.004 -5.44232,-0.61838 -7.37247,-2.25 z m 68.57611,-5.6305 c -1.69383,-1.03289 -3.67429,-3.31348 -4.40102,-5.06796 -1.13787,-2.74705 -1.09067,-3.67366 0.33987,-6.67355 2.1978,-4.60883 7.60799,-7.04348 11.79647,-5.30856 3.41978,1.41653 6.84437,5.86443 6.84437,8.88957 0,5.06088 -4.87029,10.05305 -9.79705,10.04223 -0.93662,-0.002 -3.08881,-0.84883 -4.78264,-1.88173 z m -229.46024,-1.15446 c -3.34418,-3.34418 -4.1351,-6.6054 -2.53228,-10.44148 4.08688,-9.78128 18.57221,-7.29076 18.57221,3.19319 0,7.62636 -10.78722,12.501 -16.03993,7.24829 z m 113.8025,-0.52546 C 258.22352,138.51434 256,134.13426 256,129.08299 c 0,-3.26397 0.66188,-4.6782 3.53333,-7.54966 C 262.62282,118.44384 263.68637,118 268,118 c 4.31363,0 5.37718,0.44384 8.46667,3.53333 2.87145,2.87146 3.53333,4.28569 3.53333,7.54966 0,2.20898 -0.68262,5.33637 -1.51693,6.94974 -2.82818,5.4691 -10.85773,7.58298 -16.7205,4.40188 z m 233.28311,0.12043 c -1.67952,-2.0237 -0.93038,-5.57178 1.51778,-7.18856 1.80821,-1.19414 2.33394,-1.11072 4.25,0.67436 2.58725,2.41039 2.76339,4.23946 0.61511,6.38773 -1.96423,1.96423 -4.81087,2.02064 -6.38289,0.12647 z M 35.2,139.8 c -2.804997,-2.805 -0.691727,-7.8 3.3,-7.8 2.680459,0 4.5,1.81954 4.5,4.5 0,2.68046 -1.819541,4.5 -4.5,4.5 -1.155,0 -2.64,-0.54 -3.3,-1.2 z M 401,116.29028 c -5.19885,-1.91061 -6.91147,-9.25045 -2.98709,-12.80196 C 402.44324,99.478926 411,103.101 411,108.98575 411,111.53287 407.84295,116 406.04283,116 c -0.48359,0 -1.47856,0.18935 -2.21104,0.42077 C 403.0993,116.6522 401.825,116.59348 401,116.29028 Z M 128,114 c -4.45687,-4.45687 -0.93453,-13 5.35991,-13 3.62659,0 7.64009,4.08711 7.64009,7.78023 0,6.14898 -8.61264,9.60713 -13,5.21977 z m 76.38812,-1.96889 C 201.23347,110.73979 198,106.10825 198,102.88092 c 0,-1.7119 1.12432,-4.107704 2.81644,-6.001507 2.30634,-2.581243 3.5711,-3.15214 6.98323,-3.15214 11.94014,0 13.44177,16.437427 1.70033,18.612557 -1.65,0.30567 -3.95035,0.16674 -5.11188,-0.30872 z m 119.72195,-0.42662 c -5.49739,-3.04697 -6.6179,-9.94832 -2.36007,-14.535926 4.02976,-4.341867 9.52937,-4.516467 13.61364,-0.4322 3.94139,3.941396 3.73947,10.257646 -0.44037,13.774746 -3.36687,2.83303 -7.10965,3.2461 -10.8132,1.19338 z m -61.74975,-11.06466 c -7.62008,-5.337317 -3.52813,-17.581101 5.8545,-17.517594 8.73271,0.05911 12.89794,11.597507 6.11314,16.934433 -3.06405,2.410181 -8.94973,2.696981 -11.96764,0.583161 z m 155.5791,-9.600407 c -2.73561,-2.735615 -2.17703,-6.693347 1.31058,-9.285777 l 2.75,-2.044148 2.75,2.045577 c 3.58849,2.669286 4.00804,5.909126 1.15806,8.942789 -2.76702,2.945362 -5.25806,3.052135 -7.96864,0.341559 z M 110.57143,90.428571 C 107.05409,86.911233 109.84968,80 114.78979,80 117.23718,80 121,83.614883 121,85.966055 c 0,5.038832 -6.89976,7.991326 -10.42857,4.462516 z m 80.88312,-12.883116 c -3.93577,-3.93577 -2.89968,-9.245125 2.32509,-11.914717 7.31139,-3.735745 13.95501,6.512111 7.90591,12.194948 -3.07017,2.884273 -7.17904,2.77173 -10.231,-0.280231 z m 143.57089,0.479981 C 328.9501,71.950101 334.06876,63.294537 342.48735,65.407469 350.50861,67.420677 348.36442,80 340,80 c -1.65378,0 -3.88606,-0.886063 -4.97456,-1.974564 z M 436,70 c -1.1,-1.1 -2,-2.605256 -2,-3.345012 C 434,64.906296 437.23018,62 439.17375,62 440.9128,62 444,65.088795 444,66.828741 444,68.25853 440.38244,72 439,72 c -0.55,0 -1.9,-0.9 -3,-2 z M 94.654988,69.171259 c -2.195158,-2.425621 -2.088288,-4.469153 0.349074,-6.674935 1.655908,-1.498576 2.437669,-1.616088 4.5,-0.676427 C 103.9445,63.843096 102.16439,71 97.220729,71 96.719814,71 95.565231,70.177067 94.654988,69.171259 Z M 265.357,66.999099 C 262.80798,65.981528 260,62.236396 260,59.854219 c 0,-0.935423 1.165,-3.085295 2.58889,-4.777494 3.91143,-4.648465 9.29193,-3.942268 12.24777,1.607534 1.68932,3.171826 1.44567,4.893657 -1.08666,7.679164 -2.66887,2.9357 -5.45205,3.809708 -8.393,2.635676 z M 182.55032,48.641232 c -3.08573,-3.085736 -3.1237,-3.642577 -0.47774,-7.006373 2.64659,-3.364598 7.16366,-3.563368 9.37072,-0.412353 2.86406,4.089031 1.28375,8.131401 -3.64298,9.318539 -2.09348,0.504442 -3.27233,0.07785 -5.25,-1.899813 z m 163.67219,0.802064 C 341.79428,46.341648 344.60629,39 350.22251,39 352.78064,39 356,42.590366 356,45.443296 356,47.9855 352.74501,51 350,51 c -0.85524,0 -2.55512,-0.700517 -3.77749,-1.556704 z m -80.99425,-13.67349 c -2.38422,-1.149044 -3.83068,-4.75753 -2.88985,-7.209303 0.30476,-0.794182 1.64801,-2.160726 2.98501,-3.036763 4.53086,-2.96873 9.68828,1.309186 8.29085,6.876992 -0.43464,1.731735 -4.64001,4.955553 -5.91132,4.531588 -0.11162,-0.03722 -1.22523,-0.560355 -2.47469,-1.162514 z M 174.65499,23.171259 c -2.1766,-2.405117 -2.09131,-4.466416 0.27335,-6.606404 4.04402,-3.659792 9.63113,1.406153 6.61968,6.002203 -1.89459,2.891515 -4.60781,3.129339 -6.89303,0.604201 z m 180.91644,0.257312 C 354.70714,22.564286 354,21.246429 354,20.5 c 0,-1.953027 2.82997,-4.5 5,-4.5 2.17003,0 5,2.546973 5,4.5 0,1.953027 -2.82997,4.5 -5,4.5 -1.02143,0 -2.56429,-0.707143 -3.42857,-1.571429 z M 264.49632,6.9959375 C 261.80267,4.0194889 263.8157,0 268,0 c 4.1843,0 6.19733,4.0194889 3.50368,6.9959375 -2.30571,2.5477814 -4.70165,2.5477814 -7.00736,0 z"
         id="path24"
         inkscape:connector-curvature="0" />
      <path
         style="fill:#4e4e4e"
         d="m 215.75,319.83772 c -2.97044,-1.0849 -3.29095,-1.95843 -1.76485,-4.80998 0.8433,-1.57571 1.84615,-1.7627 6.96435,-1.2986 5.80982,0.52681 6.07934,0.44202 9.51484,-2.99348 2.42669,-2.42669 3.53566,-4.44791 3.53566,-6.44413 0,-1.60442 -5.1705,-14.06693 -11.53194,-27.79557 -6.34257,-13.68791 -11.30669,-25.47409 -11.03139,-26.19153 0.55255,-1.4399 4.35118,-1.72593 6.32015,-0.47589 0.69125,0.43886 5.33192,9.99447 10.31261,21.23469 8.95997,20.22052 10.34955,22.85112 11.47588,21.7248 0.31825,-0.31826 4.11234,-9.64586 8.4313,-20.72802 4.31897,-11.08216 8.39618,-20.80427 9.06047,-21.60469 1.52945,-1.84287 5.85652,-1.89616 6.55318,-0.0807 0.45319,1.181 -20.20028,53.15361 -24.05026,60.52033 -1.85008,3.54001 -6.44026,7.75121 -9.8551,9.04143 -3.44737,1.30251 -10.23,1.25449 -13.9349,-0.0987 z m 130.95268,-16.28004 c -9.90906,-3.53465 -16.65035,-11.17166 -18.73797,-21.22769 -2.63375,-12.68667 3.64967,-25.01238 16.03529,-31.45524 3.56546,-1.85472 6.05757,-2.33668 12,-2.32073 6.40441,0.0172 8.29157,0.45294 12.91876,2.98305 6.35867,3.47686 8.07736,5.65889 6.46894,8.21293 -1.76468,2.80218 -3.86396,2.57795 -8.86461,-0.94683 -4.10919,-2.89643 -5.46598,-3.30317 -11.01852,-3.30317 -5.42268,0 -6.94413,0.43094 -10.59166,3 -12.07643,8.50579 -12.07643,27.49421 0,36 3.72694,2.62499 5.11342,3 11.09166,3 6.11281,0 7.32381,-0.34646 11.49993,-3.29007 4.82344,-3.39987 7.75838,-3.57321 8.92723,-0.52725 0.90188,2.35026 -2.12164,5.21322 -8.93173,8.45744 -6.76214,3.22137 -14.30012,3.73517 -20.79732,1.41756 z M 164.46239,302.7626 c -0.26868,-0.70019 -0.37014,-17.24572 -0.22545,-36.76784 L 164.5,230.5 l 3.39514,-0.32418 c 2.04185,-0.19497 3.72977,0.20363 4.23468,1 0.46176,0.7283 0.84645,15.60236 0.85487,33.05347 l 0.0153,31.7293 20.14193,0.2707 c 17.91711,0.24081 20.26377,0.46401 21.24489,2.02071 0.80396,1.27561 0.8039,2.22439 -2.5e-4,3.5 -0.99304,1.57527 -3.51607,1.77674 -25.26942,2.01783 -18.84124,0.20882 -24.27388,-0.0127 -24.65476,-1.00523 z m 109.78059,0.0804 C 273.31817,301.91817 273,295.15528 273,276.42244 c 0,-27.10087 0.16424,-27.96236 5.19496,-27.2492 1.95945,0.27777 2.35199,1.00144 2.61817,4.82676 0.44953,6.46015 1.67243,7.07979 5.29618,2.68356 4.61639,-5.60049 13.29128,-9.4288 16.64069,-7.34369 0.6875,0.42799 1.25,2.11573 1.25,3.75053 0,1.6348 -0.5625,3.13185 -1.25,3.32678 -0.6875,0.19492 -3.16996,0.8761 -5.51658,1.51372 -5.52229,1.50052 -11.05588,6.41363 -13.53449,12.01687 -1.52997,3.4587 -2.10441,7.68384 -2.58321,19 L 280.5,303.5 l -2.50702,0.29298 c -1.37887,0.16113 -3.06637,-0.26637 -3.75,-0.95 z M 312.2,302.8 c -1.70727,-1.70727 -1.70727,-50.89273 0,-52.6 1.83712,-1.83712 5.60769,-1.42786 6.76482,0.73426 0.6298,1.1768 1.03518,11.18831 1.03518,25.56574 0,14.37743 -0.40538,24.38894 -1.03518,25.56574 -1.15713,2.16212 -4.9277,2.57138 -6.76482,0.73426 z m -0.78261,-67.15468 c -0.3116,-0.81201 -0.42048,-2.75189 -0.24196,-4.31085 C 311.47156,228.74835 311.85047,228.5 315.5,228.5 h 4 v 4 c 0,3.90193 -0.0921,4.00762 -3.75804,4.31084 -2.60788,0.21571 -3.93142,-0.141 -4.32457,-1.16552 z"
         id="path22"
         inkscape:connector-curvature="0" />
    </g>
  </g>
</svg>
